<svg version="1.1" xmlns="http://www.w3.org/2000/svg" xmlns:xlink="http://www.w3.org/1999/xlink" width="512px" height="512px" viewBox="0,0,256,256"><g fill="#ffffff" fill-rule="nonzero" stroke="none" stroke-width="1" stroke-linecap="butt" stroke-linejoin="miter" stroke-miterlimit="10" stroke-dasharray="" stroke-dashoffset="0" font-family="none" font-weight="none" font-size="none" text-anchor="none" style="mix-blend-mode: normal"><g transform="translate(-0.00487,0) scale(0.5,0.5)"><path d="M493.84,333.67c-1.17854,-1.51176 -3.18392,-2.11337 -5,-1.5c-27.32,9 -35.77,2 -47.45,-7.63c-5.1802,-4.5238 -10.80562,-8.51084 -16.79,-11.9c-12,-6.47 -20.81,-7.05 -27,-5.63c1.41,-8.29 1.14,-20.13 -6.43,-33c-6.87794,-12.06229 -19.7046,-19.50091 -33.59,-19.48c9.3,-35.52 6.06,-67.79 -9.15,-89.3c-13.18,-18.62 -35.1,-29.23 -63.43,-30.54c-33.76,-1.64 -62.13,12.2 -75.62,37c-5.45803,9.92443 -8.12908,21.14076 -7.73,32.46c-5.63,-5.59 -13.83,-10.31 -25.78,-13.49c-18.87,-5.06 -38.87,3.34 -50.87,21.34c-10.62,15.86 -12,34.84 -4.29,50.56c-13.46,0.33 -31.57,6 -39.24,26.29c-6.28,16.65 -2.16,28.57 2.41,35.62c1.22869,1.85328 2.62813,3.58751 4.18,5.18l-0.41,0.63c-16.74,26.49 -64.75,19.72 -65.24,19.63c-2.06124,-0.32231 -4.07606,0.80483 -4.88,2.73c-0.80504,1.93038 -0.20008,4.16091 1.47,5.42c1.34,1 25.75,19.38 54.58,19.38c9.86888,0.05611 19.60518,-2.27333 28.38,-6.79c21.89,-11.32 32.21,-8.49 46.49,-4.59c8.75,2.4 18.65,5.1 32.7,5.1c29.46,0 47.1,-13.64 54,-20.38c9.12,7.73 35.66,26.14 81.67,26.14c49.78,0 82.77,-15.36 90.72,-19.48c62.79,19.46 85.7,-17 86.65,-18.56c0.98467,-1.6389 0.84503,-3.71753 -0.35,-5.21zM408.45,348.16c-1.22283,-0.40071 -2.5587,-0.25875 -3.67,0.39c-0.33,0.18 -34.13,19.23 -88,19.23c-52.81,0 -78.34,-26.31 -78.59,-26.58c-0.92833,-0.95656 -2.21783,-1.47599 -3.55,-1.43c-1.33132,0.06892 -2.56763,0.71077 -3.39,1.76c-0.16,0.21 -16.31,20.49 -50.16,20.49c-12.82,0 -21.7,-2.43 -30.29,-4.77c-15,-4.11 -28,-7.67 -53.1,5.28c-20.69,10.71 -43.09,4.18 -57.6,-2.64c17.46,-0.5 42.36,-4.95 55,-24.41c6.67338,4.42197 14.39046,7.01502 22.38,7.52c0.74,0 1.47,0.07 2.21,0.07c12.27,0 23.82,-6.2 29.85,-16.19c4.93,-8.17 5.1,-17.27 0.44,-24.95c-7.88,-13 -16.85,-14.51 -21.58,-14.33c-6.52869,0.36214 -12.34753,4.23626 -15.2,10.12c-2.22328,4.26036 -1.8878,9.40449 0.87,13.34c1.49393,2.03517 4.35483,2.47393 6.39,0.98c2.03517,-1.49393 2.47393,-4.35483 0.98,-6.39c-1,-1.37 -0.42,-3.1 0,-4c1.41396,-2.83974 4.23397,-4.71086 7.4,-4.91c4.54,-0.35 9.3,3.3 13.32,9.93c3.88,6.41 1.38,12.46 -0.45,15.5c-3.81,6.32 -12.46,12.44 -23.68,11.72c-11,-0.67 -21.17,-6.2 -26.49,-14.41c-4.91,-7.61 -5.43,-17.1 -1.54,-27.48c9.39,-24.8 37.26,-20.07 38.43,-19.85c1.85691,0.33787 3.73051,-0.50056 4.71586,-2.11034c0.98535,-1.60977 0.87973,-3.65969 -0.26586,-5.15966c-12.7,-16.68 -8.49,-35.66 -0.32,-47.87c9.85,-14.69 26,-21.55 41,-17.58c24.77,6.61 30.29,19.22 31.18,37.41c0.34,7.45 -4.91,15.88 -12.8,20.5c-3,1.71 -10.53,5.27 -17.35,1c-4.5,-2.82 -7.12,-6 -7.81,-9.54c-1,-4.94 2.13,-9.34 2.23,-9.48c1.39577,-2.02562 0.9377,-4.79263 -1.03637,-6.26039c-1.97407,-1.46776 -4.75578,-1.10958 -6.29363,0.81039c-0.23,0.3 -5.57,7.55 -3.89,16.53c1.15,6.16 5.17,11.44 12,15.68c7.79,4.87 17.56,4.55 26.81,-0.88c10.43,-6.12 17.19,-17 17.25,-27.52c14.78,19.62 32.94,25.3 45.76,26.48c18.27,1.69 37.28,-4.56 49.54,-16.33c11,-10.54 9.87,-30.19 3.25,-43.32c-6.77,-13.42 -18.33,-20.18 -30.88,-18c-9.32,1.59 -15.84,5.6 -19.35,11.9c-5.67,10.15 -0.95,22.14 -0.74,22.65c0.55702,1.5871 1.94084,2.73993 3.60244,3.00113c1.6616,0.2612 3.33238,-0.41145 4.34949,-1.75109c1.01711,-1.33965 1.21611,-3.12972 0.51807,-4.66004c0,-0.09 -3.25,-8.51 0.25,-14.78c2.1,-3.77 6.45,-6.25 12.91,-7.35c12,-2.08 18.84,8.49 21.18,13.14c6,11.8 5.33,26.13 -1.42,32.61c-10.24,9.83 -26.86,15.25 -42.38,13.83c-11.25,-1 -27.38,-6.08 -40.35,-24.18c-11.39,-15.89 -12.39,-36.93 -2.61,-54.9c12,-21.95 36.55,-33.72 67.17,-32.22c25.75,1.23 44.72,10.21 56.36,26.69c14.49,20.49 16.69,52.52 6,87.87c-0.46572,1.55026 -0.07661,3.23122 1.02295,4.41915c1.09955,1.18793 2.74548,1.70557 4.32705,1.36085c0.82,-0.17 20,-4 30.94,14.49c11.23,19.12 2.85,35.15 2.5,35.81c-1.16226,2.08694 -0.49568,4.71814 1.52,6c2.02195,1.29571 4.69943,0.82628 6.16,-1.08c0.3,-0.39 7.35,-9.19 26.78,1.32c5.46755,3.10614 10.60412,6.76171 15.33,10.91c9.94,8.19 19.36,16 39.54,13.27c-11.45,7.52 -32.41,14.36 -66.68,3.3z"></path></g></g></svg>