<svg version="1.1" xmlns="http://www.w3.org/2000/svg" xmlns:xlink="http://www.w3.org/1999/xlink" width="128px" height="128px" viewBox="0,0,256,256"><g fill="#ffffff" fill-rule="nonzero" stroke="none" stroke-width="1" stroke-linecap="butt" stroke-linejoin="miter" stroke-miterlimit="10" stroke-dasharray="" stroke-dashoffset="0" font-family="none" font-weight="none" font-size="none" text-anchor="none" style="mix-blend-mode: normal"><g transform="translate(-3.99012,-4.86) scale(2,2)"><g><path d="M40,76.43c-0.82,0 -1.64,-0.33 -2.23,-0.99c-4.42,-4.9 -7.49,-10.87 -8.89,-17.28c-0.35,-1.62 0.67,-3.22 2.29,-3.57c1.62,-0.36 3.22,0.67 3.57,2.29c1.18,5.39 3.77,10.42 7.49,14.55c1.11,1.23 1.01,3.13 -0.22,4.24c-0.57,0.51 -1.29,0.76 -2.01,0.76z"></path></g><path d="M101.82,19.47c-0.98,-5.49 -5.74,-9.47 -11.32,-9.47c-2,0 -3.92,0.53 -5.62,1.48c-2.29,-3.35 -6.13,-5.48 -10.36,-5.48c-3.65,0 -6.96,1.56 -9.25,4.08c-2.11,-2.49 -5.26,-4.08 -8.77,-4.08c-5.35,0 -9.84,3.68 -11.12,8.63c-1.73,-1.03 -3.73,-1.63 -5.88,-1.63c-6.34,0 -11.5,5.16 -11.5,11.5v16c0,6.34 5.16,11.5 11.5,11.5c4.44,0 8.3,-2.54 10.21,-6.24c1.9,1.4 4.25,2.24 6.79,2.24c3.15,0 6.09,-1.25 8.28,-3.52c1.15,-1.19 1.12,-3.09 -0.08,-4.24c-1.19,-1.15 -3.09,-1.12 -4.24,0.08c-1.05,1.08 -2.45,1.68 -3.96,1.68c-3.03,0 -5.5,-2.47 -5.5,-5.5v-19c0,-3.03 2.47,-5.5 5.5,-5.5c3.03,0 5.5,2.47 5.5,5.5c0,1.34 0.89,2.47 2.11,2.85c0.03,0.01 0.05,0.02 0.08,0.02c0.13,0.04 0.27,0.07 0.41,0.09c0.05,0.01 0.09,0.03 0.15,0.03c0.11,0.01 0.21,0.02 0.32,0.02c1.51,0 2.82,-1.14 2.98,-2.68c0.34,-3.33 3.13,-5.83 6.47,-5.83c2.95,0 5.54,1.99 6.3,4.83c0.43,1.6 2.07,2.55 3.67,2.12c0.06,-0.01 0.1,-0.04 0.16,-0.06c0.63,-0.13 1.22,-0.45 1.66,-0.97c1.06,-1.22 2.58,-1.92 4.19,-1.92c2.67,0 4.95,1.9 5.42,4.53c0.26,1.45 1.52,2.47 2.95,2.47c0.17,0 0.35,-0.02 0.53,-0.05c1.63,-0.29 2.71,-1.85 2.42,-3.48zM45,40.5c0,3.03 -2.47,5.5 -5.5,5.5c-3.03,0 -5.5,-2.47 -5.5,-5.5v-16c0,-3.03 2.47,-5.5 5.5,-5.5c3.03,0 5.5,2.47 5.5,5.5v12z"></path><path d="M102.18,30.17c-0.03,-0.06 -0.07,-0.12 -0.11,-0.18c-1.37,-2.11 -3.34,-3.68 -5.71,-4.54l-17.85,-6.5c-5.96,-2.17 -12.57,0.92 -14.74,6.87c-1.05,2.89 -0.92,6.01 0.38,8.79c1.3,2.78 3.6,4.9 6.49,5.95l7.19,2.62c-8.3,3.62 -14.12,11.9 -14.12,21.52c0,1.66 1.34,3 3,3c1.66,0 3,-1.34 3,-3c0,-9.62 7.83,-17.45 17.45,-17.45h2.35c1.46,0 2.7,-1.05 2.95,-2.48c0.25,-1.43 -0.56,-2.84 -1.93,-3.34l-17.85,-6.5c-1.38,-0.5 -2.48,-1.51 -3.1,-2.84c-0.62,-1.33 -0.69,-2.82 -0.18,-4.21c1.04,-2.85 4.2,-4.32 7.05,-3.29l17.85,6.5c1.07,0.39 1.98,1.09 2.63,2.01c0.04,0.07 0.08,0.14 0.13,0.21c0.61,0.91 0.94,1.97 0.94,3.07v13.62c0,14.24 -9.56,26.9 -23.24,30.79c-1.59,0.45 -2.52,2.11 -2.07,3.71c0.38,1.32 1.58,2.18 2.88,2.18c0.27,0 0.55,-0.04 0.82,-0.12c1.23,-0.35 2.43,-0.77 3.6,-1.23v38.53c0,1.66 1.34,3 3,3c1.66,0 3,-1.34 3,-3v-41.56c10.95,-6.81 18,-18.97 18,-32.3v-13.62c0.01,-2.22 -0.62,-4.36 -1.81,-6.21z"></path><g><path d="M40,126.86c-1.66,0 -3,-1.34 -3,-3v-50.43c0,-1.66 1.34,-3 3,-3c1.66,0 3,1.34 3,3v50.43c0,1.65 -1.34,3 -3,3z"></path></g></g></g></svg>