<svg version="1.1" xmlns="http://www.w3.org/2000/svg" xmlns:xlink="http://www.w3.org/1999/xlink" width="24px" height="24px" viewBox="0,0,256,256"><g fill="none" fill-rule="nonzero" stroke="none" stroke-width="1" stroke-linecap="butt" stroke-linejoin="miter" stroke-miterlimit="10" stroke-dasharray="" stroke-dashoffset="0" font-family="none" font-weight="none" font-size="none" text-anchor="none" style="mix-blend-mode: normal"><g transform="scale(10.66667,10.66667)"><g><path d="M0,0h24v24h-24z" fill="none"></path><path d="M4,18h5.5v1.25c0,1.51878 -1.23122,2.75 -2.75,2.75c-1.51878,0 -2.75,-1.23122 -2.75,-2.75zM8.058,14l0.045,-0.132c0.767,-2.106 0.897,-2.498 0.897,-2.868c0,-0.75 -0.203,-1.643 -0.528,-2.273c-0.242,-0.47 -0.412,-0.607 -0.472,-0.607c-1.28,0 -2.5,1.364 -2.5,2.88c0,0.959 0.075,1.773 0.227,2.758l0.038,0.242zM8,6.12c2,0 3,2.88 3,4.88c0,1 -0.5,2 -1,3.5l-0.5,1.5h-5.5c0,-1 -0.5,-2.5 -0.5,-5c0,-2.5 1.998,-4.88 4.5,-4.88zM20.054,14.098l-0.217,1.231c-0.26372,1.49586 -1.69014,2.49472 -3.186,2.231c-1.49586,-0.26372 -2.49472,-1.69014 -2.231,-3.186l0.218,-1.23zM19.004,9.852c0.165,-0.5 0.301,-0.895 0.303,-0.9c0.202,-0.658 0.361,-1.303 0.485,-2.008c0.263,-1.492 -0.702,-3.047 -1.962,-3.27c-0.059,-0.01 -0.25,0.095 -0.57,0.515c-0.43,0.565 -0.784,1.41 -0.915,2.147c-0.058,0.33 -0.049,0.405 0.27,2.263c0.045,0.256 0.082,0.486 0.116,0.717l0.02,0.138l2.254,0.398zM18.178,1.705c2.464,0.434 4.018,3.124 3.584,5.586c-0.434,2.463 -1.187,3.853 -1.36,4.838l-5.417,-0.955l-0.232,-1.564c-0.232,-1.564 -0.55,-2.636 -0.377,-3.62c0.347,-1.97 1.832,-4.632 3.802,-4.285z" fill="#ffffff"></path></g></g></g></svg>