<svg version="1.1" xmlns="http://www.w3.org/2000/svg" xmlns:xlink="http://www.w3.org/1999/xlink" width="24px" height="24px" viewBox="0,0,256,256"><g fill="#ffffff" fill-rule="nonzero" stroke="none" stroke-width="1" stroke-linecap="butt" stroke-linejoin="miter" stroke-miterlimit="10" stroke-dasharray="" stroke-dashoffset="0" font-family="none" font-weight="none" font-size="none" text-anchor="none" style="mix-blend-mode: normal"><g transform="scale(10.66667,10.66667)"><g><path d="M23.7,19.5l-6.6,-6.6c0.6,-1.2 0.9,-2.5 0.9,-3.9c0,-5 -4,-9 -9,-9c-5,0 -9,4 -9,9c0,5 4,9 9,9c1.4,0 2.7,-0.3 3.9,-0.9l6.6,6.6c0.4,0.4 1,0.4 1.4,0l2.8,-2.8c0.4,-0.4 0.4,-1 0,-1.4zM9,16c-3.9,0 -7,-3.1 -7,-7c0,-3.9 3.1,-7 7,-7c3.9,0 7,3.1 7,7c0,3.9 -3.1,7 -7,7zM14.6,16c0.5,-0.4 1,-0.9 1.4,-1.4l3.4,3.4l-1.4,1.4zM20.2,21.6l-1.4,-1.4l1.4,-1.4l1.4,1.4z"></path><path d="M9,3c-3.3,0 -6,2.7 -6,6c0,3.3 2.7,6 6,6c3.3,0 6,-2.7 6,-6c0,-3.3 -2.7,-6 -6,-6zM9,14c-2.8,0 -5,-2.2 -5,-5c0,-2.8 2.2,-5 5,-5c2.8,0 5,2.2 5,5c0,2.8 -2.2,5 -5,5z"></path></g></g></g></svg>