<svg version="1.1" xmlns="http://www.w3.org/2000/svg" xmlns:xlink="http://www.w3.org/1999/xlink" width="24px" height="24px" viewBox="0,0,256,256"><g fill="none" fill-rule="nonzero" stroke="none" stroke-width="1" stroke-linecap="butt" stroke-linejoin="miter" stroke-miterlimit="10" stroke-dasharray="" stroke-dashoffset="0" font-family="none" font-weight="none" font-size="none" text-anchor="none" style="mix-blend-mode: normal"><g transform="scale(10.66667,10.66667)"><g><path d="M0,0h24v24h-24z" fill="none"></path><path d="M17.654,1.7l-2.782,2.533c1.29505,0.39119 2.48708,1.06507 3.49,1.973c3.512,3.2 3.512,8.388 0,11.588c-2.592,2.36 -6.598,3.862 -12.016,4.506l2.782,-2.533c-1.29505,-0.39119 -2.48708,-1.06507 -3.49,-1.973c-3.512,-3.2 -3.533,-8.369 0,-11.588c2.592,-2.36 6.599,-3.862 12.017,-4.506zM12,6c-3.866,0 -7,2.686 -7,6c0,3.314 3.134,6 7,6c3.866,0 7,-2.686 7,-6c0,-3.314 -3.134,-6 -7,-6zM12,8.3c2.21,0 4,1.657 4,3.7c0,2.043 -1.79,3.7 -4,3.7c-2.21,0 -4,-1.657 -4,-3.7c0,-2.043 1.79,-3.7 4,-3.7zM12,10.3c-1.138,0 -2,0.797 -2,1.7c0,0.903 0.862,1.7 2,1.7c1.138,0 2,-0.797 2,-1.7c0,-0.903 -0.862,-1.7 -2,-1.7z" fill="#ffffff"></path></g></g></g></svg>