<svg version="1.1" xmlns="http://www.w3.org/2000/svg" xmlns:xlink="http://www.w3.org/1999/xlink" width="512px" height="512px" viewBox="0,0,256,256"><g fill="#ffffff" fill-rule="nonzero" stroke="none" stroke-width="1" stroke-linecap="butt" stroke-linejoin="miter" stroke-miterlimit="10" stroke-dasharray="" stroke-dashoffset="0" font-family="none" font-weight="none" font-size="none" text-anchor="none" style="mix-blend-mode: normal"><g transform="translate(-0.0021,-0.00411) scale(0.5,0.5)"><path d="M468.08,426.53c-0.17,-0.48 -17.49,-49.67 -41,-171.71c-19.92,-103.49 -81.25,-108.74 -174.08,-116.68c-10.91,-0.93 -22.35,-1.91 -34.31,-3.08c-111.42,-11 -164.3,-55.92 -164.82,-56.38c-1.98053,-1.72553 -4.83155,-2.02088 -7.12374,-0.73797c-2.29219,1.28291 -3.53135,3.86747 -3.09626,6.45797c0.19,1.16 21.22,116.26 170.41,117c132.6,0.6 151.85,49.77 174.13,106.71l4.4,11.13c34.07,84.83 64.18,112.88 65.44,114c2.11027,1.92684 5.26194,2.16791 7.64071,0.58443c2.37877,-1.58348 3.37256,-4.58407 2.40929,-7.27443zM404.13,314.53l-4.36,-11c-22.94,-58.62 -44.61,-114 -185.65,-114.62c-106,-0.48 -142,-60.15 -153.37,-90c23.39,14.82 74.39,40.47 156.73,48.56c12,1.19 23.5,2.16 34.46,3.11c93.36,8 144.79,12.38 162.93,106.64c13.29,69 24.5,114.55 31.9,141.6c-11.36,-17.23 -26.57,-44.25 -42.64,-84.27z"></path><path d="M346.48,286.52c-28.32,-51.92 -102.87,-58.3 -168.64,-63.92c-30.33,-2.6 -59,-5 -77.29,-12c-2.17868,-0.83384 -4.64088,-0.37635 -6.37462,1.18443c-1.73374,1.56079 -2.44652,3.96156 -1.84538,6.21557c0.18,0.7 19.5,70.88 113.94,78.47c56.73,4.53 83.66,10.17 122.56,48.13c43.83,42.78 78.78,68.81 79.13,69.07c2.47601,1.83277 5.92056,1.57708 8.09882,-0.60118c2.17826,-2.17826 2.43396,-5.62281 0.60118,-8.09882c-0.21,-0.29 -21.79,-29.72 -70.18,-118.45zM337.48,335.7c-41.63,-40.63 -71.65,-46.93 -130.24,-51.64c-63.56,-5.1 -89.15,-39.6 -98.36,-57.92c18.8,4.65 42.77,6.7 67.87,8.85c62.65,5.35 133.66,11.43 158.78,57.49c21.84,40 38.18,68 49.65,86.76c-13.1,-11.19 -29.61,-25.91 -47.67,-43.54z"></path><path d="M284,342.19c-23.06,-10.3 -57.71,-11.47 -83,-12.33c-10,-0.33 -18.72,-0.63 -23.61,-1.43c-2.41088,-0.42542 -4.84293,0.62925 -6.18,2.68c-1.36017,2.03383 -1.39933,4.67677 -0.1,6.75c1.89,3 45.83,71.2 157.57,71.2c5.08,0 10.32,-0.14 15.67,-0.44c2.30732,-0.12012 4.35719,-1.51126 5.321,-3.61107c0.96381,-2.09981 0.6822,-4.56109 -0.731,-6.38893c-1.31,-1.71 -32.59,-41.99 -64.94,-56.43zM190.24,341.92c3.16,0.13 6.61,0.25 10.32,0.37c24.28,0.82 57.53,1.94 78.37,11.26c20.32,9.07 41.08,30.5 52.1,43.05c-79.72,0.47 -123.59,-36.01 -140.77,-54.68z"></path></g></g></svg>